<svg width="124" height="36" viewBox="0 0 124 36" fill="none" xmlns="http://www.w3.org/2000/svg">
<path d="M41.08 14.312H38.032V26H36.352V14.312H34.528V12.896H36.352V11.984C36.352 10.56 36.712 9.512 37.432 8.84C38.168 8.168 39.352 7.832 40.984 7.832V9.272C39.896 9.272 39.128 9.48 38.68 9.896C38.248 10.312 38.032 11.008 38.032 11.984V12.896H41.08V14.312ZM44.5647 10.424C44.2287 10.424 43.9407 10.304 43.7007 10.064C43.4607 9.824 43.3407 9.528 43.3407 9.176C43.3407 8.824 43.4607 8.536 43.7007 8.312C43.9407 8.072 44.2287 7.952 44.5647 7.952C44.9007 7.952 45.1887 8.072 45.4287 8.312C45.6687 8.536 45.7887 8.824 45.7887 9.176C45.7887 9.528 45.6687 9.824 45.4287 10.064C45.1887 10.304 44.9007 10.424 44.5647 10.424ZM45.4047 12.896V26H43.7247V12.896H45.4047ZM55.3531 12.656C56.9211 12.656 58.2011 13.144 59.1931 14.12C60.1851 15.08 60.6811 16.48 60.6811 18.32V26H59.0251V18.512C59.0251 17.088 58.6651 16 57.9451 15.248C57.2411 14.496 56.2731 14.12 55.0411 14.12C53.7771 14.12 52.7691 14.52 52.0171 15.32C51.2651 16.12 50.8891 17.296 50.8891 18.848V26H49.2091V12.896H50.8891V15.128C51.3051 14.328 51.9051 13.72 52.6891 13.304C53.4731 12.872 54.3611 12.656 55.3531 12.656ZM63.6286 19.424C63.6286 18.08 63.8926 16.904 64.4206 15.896C64.9646 14.872 65.7086 14.088 66.6526 13.544C67.6126 12.984 68.6926 12.704 69.8926 12.704C71.1406 12.704 72.2126 12.992 73.1086 13.568C74.0206 14.144 74.6766 14.88 75.0766 15.776V12.896H76.7566V26H75.0766V23.096C74.6606 23.992 73.9966 24.736 73.0846 25.328C72.1886 25.904 71.1166 26.192 69.8686 26.192C68.6846 26.192 67.6126 25.912 66.6526 25.352C65.7086 24.792 64.9646 24 64.4206 22.976C63.8926 21.952 63.6286 20.768 63.6286 19.424ZM75.0766 19.448C75.0766 18.392 74.8606 17.464 74.4286 16.664C73.9966 15.864 73.4046 15.248 72.6526 14.816C71.9166 14.384 71.1006 14.168 70.2046 14.168C69.2766 14.168 68.4446 14.376 67.7086 14.792C66.9726 15.208 66.3886 15.816 65.9566 16.616C65.5406 17.4 65.3326 18.336 65.3326 19.424C65.3326 20.496 65.5406 21.44 65.9566 22.256C66.3886 23.056 66.9726 23.672 67.7086 24.104C68.4446 24.52 69.2766 24.728 70.2046 24.728C71.1006 24.728 71.9166 24.512 72.6526 24.08C73.4046 23.648 73.9966 23.032 74.4286 22.232C74.8606 21.432 75.0766 20.504 75.0766 19.448ZM86.7359 12.656C88.3039 12.656 89.5839 13.144 90.5759 14.12C91.5679 15.08 92.0639 16.48 92.0639 18.32V26H90.4079V18.512C90.4079 17.088 90.0479 16 89.3279 15.248C88.6239 14.496 87.6559 14.12 86.4239 14.12C85.1599 14.12 84.1519 14.52 83.3999 15.32C82.6479 16.12 82.2719 17.296 82.2719 18.848V26H80.5919V12.896H82.2719V15.128C82.6879 14.328 83.2879 13.72 84.0719 13.304C84.8559 12.872 85.7439 12.656 86.7359 12.656ZM95.0114 19.448C95.0114 18.088 95.2834 16.904 95.8274 15.896C96.3714 14.872 97.1234 14.088 98.0834 13.544C99.0434 12.984 100.139 12.704 101.371 12.704C102.987 12.704 104.315 13.104 105.355 13.904C106.411 14.704 107.091 15.792 107.395 17.168H105.595C105.371 16.224 104.883 15.488 104.131 14.96C103.395 14.416 102.475 14.144 101.371 14.144C100.491 14.144 99.6994 14.344 98.9954 14.744C98.2914 15.144 97.7314 15.744 97.3154 16.544C96.9154 17.328 96.7154 18.296 96.7154 19.448C96.7154 20.6 96.9154 21.576 97.3154 22.376C97.7314 23.176 98.2914 23.776 98.9954 24.176C99.6994 24.576 100.491 24.776 101.371 24.776C102.475 24.776 103.395 24.512 104.131 23.984C104.883 23.44 105.371 22.688 105.595 21.728H107.395C107.091 23.072 106.411 24.152 105.355 24.968C104.299 25.784 102.971 26.192 101.371 26.192C100.139 26.192 99.0434 25.92 98.0834 25.376C97.1234 24.816 96.3714 24.032 95.8274 23.024C95.2834 22 95.0114 20.808 95.0114 19.448ZM122.354 18.776C122.354 19.352 122.338 19.792 122.306 20.096H111.434C111.482 21.088 111.722 21.936 112.154 22.64C112.586 23.344 113.154 23.88 113.858 24.248C114.562 24.6 115.33 24.776 116.162 24.776C117.25 24.776 118.162 24.512 118.898 23.984C119.65 23.456 120.146 22.744 120.386 21.848H122.162C121.842 23.128 121.154 24.176 120.098 24.992C119.058 25.792 117.746 26.192 116.162 26.192C114.93 26.192 113.826 25.92 112.85 25.376C111.874 24.816 111.106 24.032 110.546 23.024C110.002 22 109.73 20.808 109.73 19.448C109.73 18.088 110.002 16.896 110.546 15.872C111.09 14.848 111.85 14.064 112.826 13.52C113.802 12.976 114.914 12.704 116.162 12.704C117.41 12.704 118.498 12.976 119.426 13.52C120.37 14.064 121.09 14.8 121.586 15.728C122.098 16.64 122.354 17.656 122.354 18.776ZM120.65 18.728C120.666 17.752 120.466 16.92 120.05 16.232C119.65 15.544 119.098 15.024 118.394 14.672C117.69 14.32 116.922 14.144 116.09 14.144C114.842 14.144 113.778 14.544 112.898 15.344C112.018 16.144 111.53 17.272 111.434 18.728H120.65Z" fill="#0C3499"/>
<path d="M15.9 16.5C15.3 16.35 14.7 16.05 14.25 15.6C13.8 15.45 13.65 15 13.65 14.7C13.65 14.4 13.8 13.95 14.1 13.8C14.55 13.5 15 13.2 15.45 13.35C16.35 13.35 17.1 13.8 17.55 14.4L18.9 12.6C18.45 12.15 18 11.85 17.55 11.55C17.1 11.25 16.5 11.1 15.9 11.1V9H14.1V11.1C13.35 11.25 12.6 11.7 12 12.3C11.4 13.05 10.95 13.95 11.1 14.85C11.1 15.75 11.4 16.65 12 17.25C12.75 18 13.8 18.45 14.7 18.9C15.15 19.05 15.75 19.35 16.2 19.65C16.5 19.95 16.65 20.4 16.65 20.85C16.65 21.3 16.5 21.75 16.2 22.2C15.75 22.65 15.15 22.8 14.7 22.8C14.1 22.8 13.35 22.65 12.9 22.2C12.45 21.9 12 21.45 11.7 21L10.2 22.65C10.65 23.25 11.1 23.7 11.7 24.15C12.45 24.6 13.35 25.05 14.25 25.05V27H15.9V24.75C16.8 24.6 17.55 24.15 18.15 23.55C18.9 22.8 19.35 21.6 19.35 20.55C19.35 19.65 19.05 18.6 18.3 18C17.55 17.25 16.8 16.8 15.9 16.5ZM15 6C8.4 6 3 11.4 3 18C3 24.6 8.4 30 15 30C21.6 30 27 24.6 27 18C27 11.4 21.6 6 15 6ZM15 28.35C9.3 28.35 4.65 23.7 4.65 18C4.65 12.3 9.3 7.65 15 7.65C20.7 7.65 25.35 12.3 25.35 18C25.35 23.7 20.7 28.35 15 28.35Z" fill="#FCBF3C"/>
</svg>
